<?xml version="1.0" encoding="UTF-8" standalone="no"?>
<svg
   xmlns:dc="http://purl.org/dc/elements/1.1/"
   xmlns:cc="http://creativecommons.org/ns#"
   xmlns:rdf="http://www.w3.org/1999/02/22-rdf-syntax-ns#"
   xmlns:svg="http://www.w3.org/2000/svg"
   xmlns="http://www.w3.org/2000/svg"
   xml:space="preserve"
   enable-background="new 0 0 100 100"
   viewBox="0 0 100 100"
   y="0px"
   x="0px"
   id="Layer_1"
   version="1.1"
   height="32"
   width="32"><metadata
   id="metadata145"><rdf:RDF><cc:Work
       rdf:about=""><dc:format>image/svg+xml</dc:format><dc:type
         rdf:resource="http://purl.org/dc/dcmitype/StillImage" /><dc:title>Beautiful place</dc:title></cc:Work></rdf:RDF></metadata><defs
   id="defs143" /><title
   id="title2">Beautiful place</title>
       <g
   id="g30">
           
           
           
       </g>
       
       
       
       
       
       <g
   id="g122"><path
   id="path110"
   d="M11.037,80.892l5.354-5.354l5.476,5.567c0.116,0.118,0.249,0.209,0.387,0.287l1.267-3.598l-5.871-5.969                c-0.328-0.333-0.774-0.521-1.24-0.522c-0.443,0.039-0.915,0.183-1.245,0.513l-6.601,6.601c-0.684,0.684-0.684,1.791,0,2.475                S10.354,81.575,11.037,80.892z" /><path
   id="path112"
   d="M77.52,46.369c-0.25-0.694-0.908-1.157-1.646-1.157s-1.396,0.463-1.646,1.157l-5.969,16.593L58.57,36.038                c-0.25-0.695-0.908-1.158-1.646-1.158s-1.397,0.463-1.646,1.158l-9.799,27.236l-6.076-16.886c-0.25-0.695-0.908-1.158-1.646-1.158                s-1.396,0.463-1.646,1.158l-11.65,32.383c-0.003-0.003-0.005-0.006-0.008-0.008l-2.785,7.83c0,0-2.836,0.035-3.627,0.043v-2.773                l2.463,2.504l1.293-3.675l-4.146-4.217c-0.328-0.333-0.774-0.521-1.24-0.522c-0.443,0.011-0.915,0.183-1.245,0.513l-6.601,6.601                c-0.684,0.684-0.684,1.792,0,2.475c0.684,0.684,1.791,0.684,2.475,0l3.502-3.502v4.292c-0.002,0.029-0.008,0.057-0.008,0.087                c0.01,0.96,0.791,1.732,1.749,1.732c0.007,0,0.013,0,0.019,0c2.04-0.021,4.083-0.03,6.125-0.048                c5.063-0.042,10.123-0.072,15.186-0.091c5.268-0.019,10.523-0.025,15.771-0.019c2.323,0.003,4.644,0.007,6.961,0.015                c5.245,0.018,10.466,0.049,15.663,0.093c-0.078,0.021-0.158,0.027-0.24,0.037h15.014c0.57,0,1.104-0.277,1.432-0.744                c0.328-0.466,0.408-1.063,0.215-1.599L77.52,46.369z M75.873,52.131l2.549,7.086l-2.566,2.948l-2.57-2.84L75.873,52.131z                 M56.924,41.8l3.65,10.146l-3.793,4.187l-3.629-3.853L56.924,41.8z M37.756,52.149l2.572,7.149l-2.496,2.866l-2.633-2.909                L37.756,52.149z M37.037,86.657H25.34l0.028-0.077l8.488-23.593l2.704,2.987c0.332,0.367,0.803,0.576,1.297,0.576                c0.006,0,0.012,0,0.018,0c0.5-0.005,0.975-0.224,1.303-0.602l2.508-2.88l1.933,5.374L37.037,86.657z M59.73,86.663h-5.838H40.783                l0.002-0.006h-0.028l4.722-13.045l1.859-5.169l4.486-12.47l3.709,3.937c0.33,0.352,0.791,0.551,1.273,0.551                c0.006,0,0.012,0,0.018,0c0.488-0.005,0.951-0.214,1.279-0.575l3.813-4.21l4.481,12.455l1.86,5.169l4.771,13.363H59.73z                 M79.977,86.638h-3.201H76.74l-6.623-18.507l1.825-5.074l2.642,2.918c0.332,0.367,0.803,0.576,1.297,0.576c0.006,0,0.012,0,0.018,0                c0.5-0.005,0.975-0.224,1.303-0.602l2.578-2.961l8.51,23.649H79.977z" />
           <path
   id="path114"
   d="M11.037,74.242l5.354-5.354l5.476,5.567c0.343,0.349,0.795,0.522,1.247,0.522c0.443,0,0.887-0.167,1.228-0.502                c0.688-0.678,0.698-1.786,0.021-2.475l-6.713-6.825c-0.328-0.333-0.774-0.521-1.24-0.522c-0.443-0.026-0.915,0.182-1.245,0.512                l-6.601,6.602c-0.684,0.684-0.684,1.792,0,2.475C9.246,74.926,10.354,74.926,11.037,74.242z" />
           <path
   id="path116"
   d="M16.001,37.654c3.485,0,6.321-2.836,6.321-6.321s-2.836-6.321-6.321-6.321S9.68,27.848,9.68,31.333                S12.516,37.654,16.001,37.654z M16.001,28.512c1.556,0,2.821,1.266,2.821,2.821s-1.266,2.821-2.821,2.821s-2.821-1.266-2.821-2.821                S14.445,28.512,16.001,28.512z" />
           <path
   id="path118"
   d="M73.16,17.121c0.012,0,0.021,0,0.031,0c0.057,0.002,5.041-0.061,7.791,2.689c0.328,0.328,0.758,0.492,1.189,0.492                c0.098,0,0.195-0.012,0.293-0.027c0.096,0.016,0.193,0.027,0.293,0.027c0.43,0,0.859-0.164,1.188-0.492                c2.736-2.736,7.688-2.691,7.789-2.689c0.932,0.024,1.695-0.713,1.717-1.641c0.021-0.927-0.713-1.696-1.641-1.718                c-0.24-0.011-5.559-0.087-9.346,2.89c-3.789-2.975-9.109-2.892-9.346-2.89c-0.928,0.021-1.66,0.788-1.641,1.714                C71.498,16.393,72.248,17.121,73.16,17.121z" />
           <path
   id="path120"
   d="M61.842,25.175c0.039,0,3.785-0.033,5.857,2.553c0.33,0.414,0.818,0.63,1.313,0.63c0.078,0,0.154-0.027,0.232-0.039                c0.078,0.012,0.154,0.039,0.234,0.039c0.492,0,0.98-0.216,1.313-0.63c2.066-2.581,5.773-2.559,5.861-2.552                c0.92,0.025,1.695-0.705,1.723-1.631c0.027-0.928-0.703-1.701-1.631-1.728c-0.199-0.008-4.371-0.083-7.5,2.69                c-3.129-2.772-7.299-2.694-7.5-2.69c-0.928,0.026-1.656,0.8-1.631,1.728C60.141,24.472,60.922,25.235,61.842,25.175z" />
       </g>
       </svg>