<?xml version="1.0" encoding="UTF-8" standalone="no"?>
<svg
   xmlns:svg="http://www.w3.org/2000/svg"
   xmlns="http://www.w3.org/2000/svg"
   xmlns:sodipodi="http://sodipodi.sourceforge.net/DTD/sodipodi-0.dtd"
   xmlns:inkscape="http://www.inkscape.org/namespaces/inkscape"
   width="32"
   height="32"
   version="1.1"
   id="Icons"
   x="0px"
   y="0px"
   viewBox="0 0 32 32"
   enable-background="new 0 0 32 32"
   xml:space="preserve"
   sodipodi:docname="6.svg"
   inkscape:version="0.92.5 (2060ec1f9f, 2020-04-08)"><defs
     id="defs4241" /><sodipodi:namedview
     pagecolor="#ffffff"
     bordercolor="#666666"
     borderopacity="1"
     objecttolerance="10"
     gridtolerance="10"
     guidetolerance="10"
     inkscape:pageopacity="0"
     inkscape:pageshadow="2"
     inkscape:window-width="1303"
     inkscape:window-height="775"
     id="namedview4239"
     showgrid="false"
     inkscape:zoom="7.375"
     inkscape:cx="17.966102"
     inkscape:cy="11.661017"
     inkscape:window-x="458"
     inkscape:window-y="69"
     inkscape:window-maximized="0"
     inkscape:current-layer="Icons" /><title
     id="title4226">Sport</title><style
     type="text/css"
     id="style4228" /><path
     class="st0"
     d="M21,25H11c-2.2,0-4-1.8-4-4V11c0-2.2,1.8-4,4-4h10c2.2,0,4,1.8,4,4v10C25,23.2,23.2,25,21,25z"
     id="path4230" /><path
     class="st0"
     d="M23,7H9l0.7-4.3c0.2-1,1-1.7,2-1.7h8.6c1,0,1.8,0.7,2,1.7L23,7z"
     id="path4232" /><path
     class="st0"
     d="M20.3,31h-8.6c-1,0-1.8-0.7-2-1.7L9,25h14l-0.7,4.3C22.1,30.3,21.3,31,20.3,31z"
     id="path4234" /><polyline
     class="st0"
     points="11,19 14,19 17,12 19,16 21,16 "
     id="polyline4236" /></svg>